<?xml version="1.0" standalone="no"?>
<!DOCTYPE svg PUBLIC "-//W3C//DTD SVG 20010904//EN"
 "http://www.w3.org/TR/2001/REC-SVG-20010904/DTD/svg10.dtd">
<svg version="1.0" xmlns="http://www.w3.org/2000/svg"
 width="720.000000pt" height="720.000000pt" viewBox="0 0 720.000000 720.000000"
 preserveAspectRatio="xMidYMid meet">

<g transform="translate(0.000000,720.000000) scale(0.100000,-0.100000)"
fill="#000000" stroke="none">
<path d="M3600 3600 l0 -3600 1800 0 1800 0 0 3600 0 3600 -1800 0 -1800 0 0
-3600z m2342 2143 c-5 -15 -13 -37 -18 -47 -5 -14 6 -9 42 18 40 31 50 35 52
21 2 -9 -6 -27 -17 -39 l-21 -22 63 -46 c82 -61 213 -199 254 -268 67 -115 66
-197 -3 -226 -44 -19 -149 -18 -235 2 -39 9 -72 14 -73 12 -9 -11 16 -176 38
-248 41 -136 56 -224 56 -330 0 -54 4 -109 9 -122 5 -14 49 -48 112 -88 146
-90 287 -208 360 -298 205 -254 209 -526 14 -858 -30 -51 -58 -95 -62 -98 -5
-2 18 48 49 112 77 156 102 255 102 397 0 127 -16 194 -71 295 -75 139 -187
252 -367 371 -94 63 -111 70 -101 40 18 -57 37 -203 42 -322 13 -322 -62 -618
-225 -879 -25 -41 -96 -142 -158 -225 -336 -454 -467 -701 -481 -908 -5 -76 2
-123 32 -247 11 -42 -75 110 -110 195 -53 129 -68 216 -63 363 4 103 10 143
33 212 47 145 134 302 271 487 30 40 54 75 54 78 0 3 -50 -20 -111 -50 -61
-31 -171 -83 -244 -115 -350 -155 -508 -258 -597 -390 l-17 -25 0 31 c-1 55
37 183 81 267 32 62 64 104 133 173 126 127 230 193 665 421 253 133 436 294
538 473 31 55 93 225 91 251 0 8 -11 -15 -23 -51 -79 -223 -220 -362 -513
-505 -164 -79 -465 -183 -541 -186 -16 -1 -20 -3 -10 -6 16 -4 16 -5 0 -22 -9
-9 -24 -15 -34 -13 -11 3 -16 -2 -15 -14 1 -11 -6 -20 -18 -22 -11 -3 -24 -10
-30 -17 -6 -8 -51 -15 -122 -19 -250 -14 -463 -74 -597 -169 l-29 -21 28 52
c115 212 340 355 662 421 160 33 253 49 343 61 269 36 462 87 587 156 119 66
218 177 268 302 41 102 37 109 -8 17 -59 -116 -130 -189 -241 -245 -117 -58
-198 -73 -386 -71 -224 4 -249 5 -243 14 2 4 -12 7 -31 7 -42 0 -60 -19 -19
-21 l28 -1 -30 -8 -30 -8 33 -1 c17 0 32 -5 32 -10 0 -10 -96 -5 -180 9 -143
25 -448 51 -377 33 9 -2 17 -8 17 -13 0 -4 12 -11 26 -14 15 -4 24 -9 21 -12
-3 -3 -31 1 -61 10 -103 30 -271 36 -341 11 -37 -13 37 45 99 76 99 52 193 71
341 70 132 0 190 -8 520 -71 286 -55 440 -50 580 19 76 38 175 135 222 219 43
77 93 228 92 280 0 37 0 36 -18 -18 -27 -85 -57 -135 -102 -174 -24 -20 -46
-36 -50 -36 -4 0 -10 -10 -13 -22 -9 -35 -60 -86 -102 -104 -22 -9 -60 -16
-86 -16 -44 0 -47 -2 -37 -20 15 -28 5 -33 -13 -6 -9 13 -35 44 -59 70 l-44
48 -117 10 c-128 11 -238 32 -294 55 -21 9 -67 15 -108 15 -39 0 -96 7 -126
15 -97 27 -234 55 -272 55 -41 0 -95 -30 -144 -81 -46 -47 -75 -21 -34 31 26
33 25 40 -6 40 -15 0 -44 -15 -68 -35 -41 -34 -66 -44 -66 -27 0 4 5 13 12 20
9 9 7 12 -10 12 -12 0 -22 3 -22 8 0 15 157 85 219 97 81 16 339 4 573 -27
l168 -22 177 28 c185 29 213 39 248 92 14 22 15 31 5 55 -15 34 -38 43 -94 35
-49 -8 -56 -2 -77 59 -8 22 -18 43 -23 47 -6 4 -5 17 2 33 7 14 12 30 12 35 0
5 -28 24 -62 41 -130 65 -280 196 -336 294 l-23 40 41 -47 c58 -67 151 -137
265 -202 55 -31 103 -56 106 -56 4 0 10 11 13 24 16 65 150 128 229 108 28 -8
45 -8 54 -1 21 18 57 6 72 -26 12 -25 12 -33 0 -55 -13 -22 -13 -32 2 -85 l16
-60 10 56 c10 59 -5 287 -30 458 l-12 83 -60 19 c-33 10 -118 33 -190 51 -113
28 -147 32 -260 33 -122 0 -133 -2 -187 -28 -100 -49 -141 -125 -119 -222 6
-28 18 -63 26 -79 21 -39 19 -43 -6 -12 -31 39 -59 120 -59 168 0 93 74 176
189 213 73 24 208 24 326 1 85 -17 278 -66 319 -82 18 -7 19 -3 13 104 -5 92
-3 131 14 215 22 113 66 224 82 208 6 -6 6 -20 -1 -38z m-1332 -2104 c-19 -4
-46 -6 -60 -3 l-25 4 25 -10 c14 -6 39 -10 57 -8 17 1 35 -1 39 -5 4 -4 -8 -8
-27 -9 -25 -1 -19 -3 21 -8 46 -6 49 -7 17 -8 -59 -3 -311 -40 -440 -66 l-119
-23 29 23 c39 33 159 92 218 109 31 8 99 13 175 13 86 -1 114 -3 90 -9z m1547
-241 c-14 -242 -93 -430 -338 -809 -115 -177 -200 -346 -234 -464 -52 -177
-44 -411 19 -611 14 -43 24 -80 22 -81 -7 -7 -87 126 -125 207 -99 213 -105
401 -18 612 42 104 91 188 206 353 200 287 293 431 345 538 54 111 100 241
112 317 12 73 17 42 11 -62z m-1876 62 c23 -13 25 -52 4 -70 -19 -15 -61 -6
-69 16 -7 18 18 64 35 64 6 0 19 -5 30 -10z m712 -187 c-18 -2 -48 -2 -65 0
-18 2 -4 4 32 4 36 0 50 -2 33 -4z m-158 -134 c-61 -33 -183 -109 -272 -169
-90 -59 -163 -106 -163 -104 0 2 12 23 27 47 85 136 206 222 378 267 39 11 86
19 105 19 31 1 23 -5 -75 -60z m-415 -38 c15 -29 13 -39 -14 -56 -33 -22 -66
-5 -66 34 0 15 3 31 7 34 14 15 63 7 73 -12z m866 -229 c-2 -4 -48 -70 -101
-147 -109 -158 -200 -306 -292 -475 l-63 -115 0 55 c0 229 147 476 379 638 74
52 87 59 77 44z m-736 -52 c11 -11 20 -24 20 -30 0 -5 -9 -19 -20 -30 -11 -11
-24 -20 -30 -20 -5 0 -19 9 -30 20 -11 11 -20 25 -20 30 0 6 9 19 20 30 11 11
25 20 30 20 6 0 19 -9 30 -20z m248 -262 c28 -28 7 -78 -33 -78 -27 0 -45 18
-45 45 0 27 18 45 45 45 12 0 26 -5 33 -12z m277 -298 c15 -17 16 -24 7 -46
-10 -20 -18 -25 -43 -22 -39 4 -55 35 -33 67 19 26 46 27 69 1z"/>
<path d="M5966 5587 c-9 -7 -21 -28 -26 -47 -4 -19 -14 -50 -21 -67 -12 -29
-10 -44 20 -145 18 -62 34 -114 35 -115 11 -11 174 -43 221 -43 136 0 141 78
15 229 -45 55 -206 201 -221 201 -3 0 -13 -6 -23 -13z"/>
<path d="M6061 4144 c0 -11 3 -14 6 -6 3 7 2 16 -1 19 -3 4 -6 -2 -5 -13z"/>
<path d="M6071 4094 c0 -11 3 -14 6 -6 3 7 2 16 -1 19 -3 4 -6 -2 -5 -13z"/>
<path d="M6061 4044 c0 -11 3 -14 6 -6 3 7 2 16 -1 19 -3 4 -6 -2 -5 -13z"/>
<path d="M6040 3980 c-6 -23 -9 -47 -7 -53 2 -7 9 10 15 38 13 61 7 72 -8 15z"/>
<path d="M5999 3853 c-22 -46 -22 -50 1 -15 13 18 20 35 18 37 -3 3 -11 -7
-19 -22z"/>
<path d="M5968 3778 c-7 -13 -13 -25 -14 -28 0 -3 -4 -13 -9 -23 -4 -10 -5
-20 -3 -23 3 -2 15 18 26 46 22 52 22 66 0 28z"/>
<path d="M5018 3763 c7 -3 16 -2 19 1 4 3 -2 6 -13 5 -11 0 -14 -3 -6 -6z"/>
<path d="M5008 3743 c6 -2 18 -2 25 0 6 3 1 5 -13 5 -14 0 -19 -2 -12 -5z"/>
<path d="M5917 3696 c-3 -8 -2 -18 3 -21 13 -8 20 9 11 24 -6 10 -10 9 -14 -3z"/>
<path d="M4560 3600 c0 -5 5 -10 11 -10 5 0 7 5 4 10 -3 6 -8 10 -11 10 -2 0
-4 -4 -4 -10z"/>
<path d="M2292 4860 c0 -14 2 -19 5 -12 2 6 2 18 0 25 -3 6 -5 1 -5 -13z"/>
<path d="M2465 4343 c-10 -58 -64 -151 -109 -189 -22 -19 -43 -34 -47 -34 -4
0 -10 -10 -13 -22 -8 -31 -54 -81 -93 -101 -17 -9 -56 -18 -85 -20 -46 -4 -52
-7 -48 -23 3 -10 5 -45 5 -76 0 -69 3 -70 90 -28 151 72 289 282 312 477 7 61
-1 72 -12 16z"/>
<path d="M2410 4082 c-64 -141 -202 -257 -355 -297 -108 -28 -224 -36 -362
-25 -70 6 -155 12 -188 14 -56 3 -57 3 -10 -3 l50 -7 -45 -11 c-42 -10 -43
-11 -12 -12 17 -1 32 -5 32 -11 0 -12 -85 -5 -325 30 -139 20 -275 26 -210 10
33 -8 26 -13 -20 -11 -28 1 -28 0 10 -15 22 -8 48 -13 58 -10 9 2 15 1 13 -3
-3 -4 12 -13 32 -21 20 -7 105 -39 187 -72 l150 -59 145 21 c470 68 668 154
796 347 34 52 100 200 92 208 -2 2 -19 -31 -38 -73z"/>
<path d="M2461 4144 c0 -11 3 -14 6 -6 3 7 2 16 -1 19 -3 4 -6 -2 -5 -13z"/>
<path d="M2436 4062 c-74 -242 -295 -430 -691 -585 -96 -37 -329 -107 -359
-107 -10 0 -20 -9 -23 -21 -3 -11 -17 -25 -32 -31 -21 -9 -23 -12 -8 -15 24
-6 21 -21 -5 -26 -13 -2 48 -5 134 -6 l156 -1 109 56 c368 193 535 329 651
534 33 59 96 234 90 252 -2 6 -12 -17 -22 -50z"/>
<path d="M2471 4094 c0 -11 3 -14 6 -6 3 7 2 16 -1 19 -3 4 -6 -2 -5 -13z"/>
<path d="M2446 4002 c-9 -32 -16 -65 -15 -73 0 -8 9 17 20 55 11 38 18 70 16
73 -2 2 -12 -23 -21 -55z"/>
<path d="M2393 3841 c-9 -15 -10 -22 -1 -27 6 -4 8 -3 4 4 -3 5 -1 12 5 14 7
2 10 9 8 16 -3 8 -9 5 -16 -7z"/>
<path d="M2355 3750 c3 -5 1 -10 -4 -10 -6 0 -11 -10 -11 -22 1 -23 1 -23 15
2 17 30 18 40 4 40 -5 0 -7 -4 -4 -10z"/>
<path d="M1403 3743 c9 -2 23 -2 30 0 6 3 -1 5 -18 5 -16 0 -22 -2 -12 -5z"/>
<path d="M2317 3696 c-3 -8 -2 -18 3 -21 13 -8 20 9 11 24 -6 10 -10 9 -14 -3z"/>
<path d="M972 3643 c10 -2 15 -10 11 -19 -4 -12 0 -14 18 -9 14 3 36 1 49 -5
24 -10 23 -10 -8 -7 -18 2 -35 0 -38 -5 -6 -9 77 -9 156 1 l55 7 -91 22 c-50
12 -109 21 -130 21 -22 -1 -31 -3 -22 -6z m61 -10 c-7 -2 -19 -2 -25 0 -7 3
-2 5 12 5 14 0 19 -2 13 -5z"/>
<path d="M943 3583 c9 -2 25 -2 35 0 9 3 1 5 -18 5 -19 0 -27 -2 -17 -5z"/>
<path d="M1328 3353 c7 -3 16 -2 19 1 4 3 -2 6 -13 5 -11 0 -14 -3 -6 -6z"/>
<path d="M1205 3270 l-50 -7 45 -1 c25 0 54 3 65 8 23 10 12 10 -60 0z"/>
</g>
</svg>
